<svg xmlns="http://www.w3.org/2000/svg" viewBox="0 0 96 96" role="img" aria-labelledby="title">
  <title>veganeWunder Logo</title>
  <g fill="none" fill-rule="evenodd">
    <path d="M48 84c-13.255 0-24-10.745-24-24h48c0 13.255-10.745 24-24 24Z" fill="#f7f3eb" stroke="#224f24" stroke-width="4" stroke-linejoin="round"/>
    <path d="M48 60v-8c0-10.23-7.533-24.838-26-28 0 17.385 11.533 30 26 30Zm0 0v-8c0-10.23 7.533-24.838 26-28 0 17.385-11.533 30-26 30Z" fill="#224f24"/>
    <path d="M48 60v-8c0-8 3.333-18 12-24-4 10-6 16-6 24h-6Zm0 0v-8c0-8-3.333-18-12-24 4 10 6 16 6 24h6Z" fill="#ffb642"/>
    <path d="M48 60v-8c0-12-5-21-5-21 6 6 9 13 9 21v8z" fill="#ff9800"/>
  </g>
</svg>
